<svg width="40" height="32" viewBox="0 0 40 32" fill="none" xmlns="http://www.w3.org/2000/svg">
<path d="M36 15.9969C35.9994 12.8326 35.0605 9.73942 33.302 7.10864C31.5435 4.47786 29.0445 2.42757 26.1208 1.21704C23.1971 0.00651407 19.9802 -0.309891 16.8767 0.307821C13.7732 0.925534 10.9225 2.44962 8.68521 4.68738C6.44788 6.92515 4.92433 9.77608 4.30722 12.8797C3.6901 15.9833 4.00714 19.2002 5.21823 22.1237C6.42933 25.0471 8.48008 27.5458 11.1112 29.3037C13.7423 31.0617 16.8356 32 20 32C22.1014 32 24.1822 31.5861 26.1237 30.7818C28.0651 29.9775 29.829 28.7987 31.3148 27.3126C32.8006 25.8266 33.9791 24.0624 34.783 22.1208C35.5869 20.1792 36.0004 18.0983 36 15.9969Z" fill="#FFCC00"/>
<path d="M27.7043 13.3303C27.7043 11.2329 26.8711 9.22131 25.388 7.73819C23.9049 6.25508 21.8933 5.42188 19.7959 5.42188C17.6984 5.42188 15.6869 6.25508 14.2038 7.73819C12.7207 9.22131 11.8875 11.2329 11.8875 13.3303C11.8875 17.6969 10.0385 25.5928 14.4085 25.5928C33.8952 25.5944 27.7043 17.6969 27.7043 13.3303ZM18.0481 17.9017C16.4283 17.9017 15.1196 16.0614 15.1196 13.7936C15.1196 11.5258 16.4283 9.6855 18.0481 9.6855C19.6678 9.6855 20.9753 11.5249 20.9753 13.7936C20.9753 16.0623 19.6638 17.9017 18.0481 17.9017ZM24.8456 16.5427C23.5675 16.5427 22.529 15.0878 22.529 13.2914C22.529 11.4949 23.5665 10.0407 24.8456 10.0407C26.1247 10.0407 27.1622 11.4943 27.1622 13.2914C27.1622 15.0884 26.1268 16.5423 24.845 16.5423L24.8456 16.5427Z" fill="#323232"/>
</svg>
