<svg width="25" height="24" viewBox="0 0 25 24" fill="none" xmlns="http://www.w3.org/2000/svg">
<path d="M19.2208 12.7513C19.1895 9.70999 21.7004 8.25455 21.8117 8.18152C20.4015 6.12095 18.207 5.83751 17.4228 5.80621C15.557 5.61493 13.7781 6.90518 12.8287 6.90518C11.8827 6.90518 10.4186 5.83229 8.86926 5.86011C6.83129 5.89141 4.95504 7.04603 3.90476 8.86837C1.78854 12.5409 3.36223 17.9801 5.42454 20.9623C6.43309 22.4194 7.63639 24.0557 9.21355 23.9983C10.7333 23.9375 11.3072 23.0141 13.1452 23.0141C14.9832 23.0141 15.4996 23.9983 17.1063 23.9688C18.7426 23.9375 19.7772 22.482 20.7771 21.0214C21.9352 19.3295 22.4116 17.6897 22.4412 17.608C22.4029 17.5871 19.2538 16.3821 19.2208 12.7513Z" fill="#1C2129"/>
<path d="M16.1984 3.83249C17.0348 2.81872 17.6017 1.40675 17.4469 0C16.2384 0.0486886 14.7795 0.801623 13.9118 1.81713C13.1345 2.71613 12.4581 4.1507 12.6389 5.52963C13.9848 5.63571 15.362 4.84452 16.1984 3.83249Z" fill="#1C2129"/>
</svg>
