<svg width="25" height="25" viewBox="0 0 25 25" fill="none" xmlns="http://www.w3.org/2000/svg">
    <g clip-path="url(#clip0_146_279)">
        <rect width="25" height="25" rx="12.5" fill="white"/>
        <path d="M12.5 0C5.59644 0 0 5.59644 0 12.5C0 19.4036 5.59644 25 12.5 25C19.4036 25 25 19.4036 25 12.5C25 5.59644 19.4036 0 12.5 0ZM19.8355 17.0674L17.6793 17.097C17.6793 17.097 17.2155 17.1891 16.6069 16.7681C15.7994 16.2138 15.0395 14.7747 14.4474 14.9588C13.8553 15.143 13.8652 16.4391 13.8652 16.4391C13.8671 16.5911 13.8204 16.7398 13.732 16.8635C13.6075 16.9701 13.454 17.0371 13.2912 17.0559H12.3356C12.3356 17.0559 10.1975 17.1826 8.33066 15.2319C6.27803 13.1135 4.47046 8.88154 4.47046 8.88154C4.47046 8.88154 4.36401 8.63608 4.48032 8.47036C4.58086 8.3271 4.82881 8.31172 4.954 8.30591C5.4937 8.28066 7.11519 8.29111 7.11519 8.29111C7.25083 8.28774 7.34199 8.29487 7.50991 8.36841C7.65425 8.43975 7.76372 8.546 7.83394 8.71709C8.0834 9.33828 8.37295 9.94263 8.70073 10.5263C9.66455 12.1924 10.1136 12.5559 10.4409 12.3783C10.9162 12.1184 10.7698 10.0247 10.7698 10.0247C10.7698 10.0247 10.7698 9.26313 10.5297 8.92598C10.3489 8.7148 10.094 8.58115 9.81753 8.55264C9.6876 8.53452 9.90142 8.23354 10.1777 8.09868C10.5922 7.89473 11.3258 7.89473 12.1909 7.89473C12.5716 7.88037 12.9524 7.91914 13.3225 8.00986C14.1185 8.2023 13.8488 8.94243 13.8488 10.722C13.8488 11.2911 13.7452 12.0938 14.1563 12.3667C14.334 12.4802 14.7649 12.3832 15.8471 10.5477C16.1924 9.94024 16.492 9.30806 16.7435 8.6562C16.7919 8.55259 16.8654 8.46274 16.9573 8.39468C17.0545 8.34629 17.1637 8.32744 17.2715 8.34038L19.6991 8.32393C19.6991 8.32393 20.4277 8.23677 20.5461 8.56733C20.6646 8.89795 20.2731 9.71865 19.2813 11.0344C17.6531 13.2055 17.4721 13.0081 18.8241 14.2564C20.1152 15.4555 20.3833 16.0394 20.4277 16.1117C20.9638 16.9967 19.8355 17.0674 19.8355 17.0674Z" fill="#87AB49"/>
    </g>
    <defs>
        <clipPath id="clip0_146_279">
            <rect width="25" height="25" rx="12.5" fill="white"/>
        </clipPath>
    </defs>
</svg>
