<svg width="25" height="24" viewBox="0 0 25 24" fill="none" xmlns="http://www.w3.org/2000/svg">
<g clip-path="url(#clip0_542_2343)">
<path d="M21.86 21C19.34 22.86 15.56 24 12.5 24C8.12002 24 4.22002 22.26 1.22002 19.56C0.980017 19.32 1.22002 19.08 1.46002 19.2C4.70002 21.06 8.36002 22.14 12.44 22.14C15.2 22.14 18.68 21.54 21.5 20.34C21.92 20.22 22.28 20.7 21.86 21ZM22.76 19.74C22.46 19.32 20.66 19.56 19.88 19.62C19.64 19.62 19.58 19.44 19.82 19.26C21.2 18.24 23.54 18.54 23.78 18.9C24.02 19.26 23.72 21.6 22.4 22.68C22.22 22.86 21.98 22.74 22.1 22.56C22.4 21.84 23.06 20.16 22.76 19.74Z" fill="#FFB300"/>
<path d="M20.2399 15.4801C19.6399 14.7001 19.0399 14.0401 19.0399 12.5401V7.5601C19.0399 5.4601 19.0399 3.6001 17.5399 2.1601C16.3399 1.0201 14.3599 0.600098 12.7999 0.600098C9.49986 0.600098 6.61986 1.9201 5.89986 5.6401C5.83986 6.0601 6.13986 6.2401 6.37986 6.3001L9.43986 6.6601C9.73986 6.6601 9.91986 6.3601 9.97986 6.0601C10.2199 4.8001 11.2399 4.2001 12.4399 4.2001C13.0999 4.2001 14.3599 4.5601 14.3599 6.0001V7.8001C12.4399 7.8001 10.3999 7.8001 8.71986 8.5201C6.73986 9.3601 5.35986 11.1001 5.35986 13.6801C5.35986 16.9801 7.39986 18.6001 10.0399 18.6001C12.2599 18.6001 13.5799 18.0601 15.3199 16.3201C15.8599 17.1601 16.0999 17.6401 17.1199 18.5401C17.3599 18.6601 17.6599 18.6601 17.8399 18.4801C18.4399 17.9401 19.5799 16.9201 20.2399 16.3801C20.5399 16.1401 20.4799 15.7801 20.2399 15.4801ZM14.2999 10.8601C14.2999 12.0601 14.2399 15.0001 11.2999 15.0001C9.49986 15.0001 9.49986 13.2001 9.49986 13.2001C9.49986 10.5001 12.0199 10.2001 14.2999 10.2001V10.8601Z" fill="#37474F"/>
</g>
<defs>
<clipPath id="clip0_542_2343">
<rect width="24" height="24" fill="white" transform="translate(0.5)"/>
</clipPath>
</defs>
</svg>
