<svg
  xmlns="http://www.w3.org/2000/svg"
  width="22"
  height="22"
  viewBox="0 0 22 22"
  fill="none"
>
  <path
    fill-rule="evenodd"
    clip-rule="evenodd"
    d="M3.34514 13.4916C3.46585 13.3424 3.69712 13.365 3.79268 13.5314C3.85397 13.6382 3.83758 13.7721 3.75598 13.8643C3.28026 14.4014 3.07507 14.8194 3.21184 15.0576C3.65127 15.8228 7.4541 14.4425 11.7057 11.9746C15.9573 9.5066 19.0476 6.88557 18.6082 6.12033C18.4776 5.89296 18.0502 5.855 17.4022 5.9787C17.2855 6.00099 17.1661 5.9492 17.1069 5.84612C17.0139 5.68418 17.1088 5.47879 17.2936 5.45176C18.5664 5.26553 19.4692 5.42108 19.7857 5.97218C20.5835 7.36154 17.3524 10.7389 12.5689 13.5156C7.78526 16.2924 3.26063 17.4171 2.46281 16.0278C2.13538 15.4576 2.48655 14.5525 3.34514 13.4916Z"
    fill="#97ABC3"
  />
  <path
    d="M17.1144 7.11837C17.3457 6.96505 17.4103 6.65199 17.2419 6.43135C16.1715 5.02903 14.6384 4.04241 12.9068 3.65348C11.0112 3.22772 9.02434 3.55116 7.36165 4.55619C5.69895 5.56121 4.48908 7.17003 3.98495 9.04632C3.52443 10.7603 3.6854 12.5763 4.42951 14.1759C4.54658 14.4275 4.85379 14.5159 5.09708 14.3823C5.34038 14.2487 5.42738 13.9438 5.3129 13.691C4.69214 12.3199 4.56246 10.7706 4.95567 9.30714C5.3925 7.68131 6.44086 6.28726 7.8816 5.4164C9.32235 4.54553 11.0439 4.26527 12.6865 4.63419C14.165 4.96627 15.4765 5.8012 16.4019 6.98813C16.5726 7.20702 16.883 7.2717 17.1144 7.11837Z"
    fill="#97ABC3"
  />
  <path
    d="M6.96264 16.5625C6.79303 16.7822 6.83278 17.0993 7.06332 17.2539C8.14123 17.9767 9.39034 18.4103 10.6901 18.5084C12.1574 18.6191 13.6249 18.2975 14.9114 17.5833C16.1979 16.8692 17.2469 15.7937 17.9289 14.4899C18.533 13.3348 18.8256 12.0454 18.7822 10.7483C18.7729 10.4709 18.5248 10.2695 18.2486 10.2972C17.9725 10.325 17.7731 10.5715 17.7795 10.849C17.8051 11.9503 17.5513 13.0431 17.0382 14.024C16.4473 15.1538 15.5383 16.0857 14.4235 16.7045C13.3088 17.3234 12.0372 17.602 10.7658 17.5061C9.66189 17.4228 8.6002 17.0602 7.67902 16.4562C7.44691 16.304 7.13226 16.3428 6.96264 16.5625Z"
    fill="#97ABC3"
  />
</svg>