<svg width="25" height="24" viewBox="0 0 25 24" fill="none" xmlns="http://www.w3.org/2000/svg">
<g clip-path="url(#clip0_542_4540)">
<path d="M11.7076 11.4631L0.599121 22.0109C0.723855 22.4116 0.948019 22.7811 1.25448 23.0912C1.56094 23.4013 1.94157 23.6438 2.3673 23.8002C2.79302 23.9565 3.25255 24.0226 3.71076 23.9934C4.16898 23.9641 4.61374 23.8403 5.01106 23.6313L17.5102 17.1796L11.7076 11.4631Z" fill="#EA4335"/>
<path d="M22.9409 9.66999L17.5357 6.86426L11.4517 11.703L17.5605 17.1645L22.9244 14.3887C23.3996 14.1632 23.7976 13.8242 24.0753 13.4083C24.353 12.9924 24.4999 12.5155 24.4999 12.0294C24.4999 11.5432 24.353 11.0664 24.0753 10.6505C23.7976 10.2346 23.3996 9.89549 22.9244 9.66999H22.9409Z" fill="#FBBC04"/>
<path d="M0.599363 1.99561C0.532215 2.22058 0.498804 2.45273 0.500033 2.68579V21.3207C0.500704 21.5536 0.534083 21.7855 0.599363 22.0108L12.0886 11.7332L0.599363 1.99561Z" fill="#4285F4"/>
<path d="M11.7904 12.0031L17.535 6.8643L5.05245 0.382606C4.58285 0.133346 4.04875 0.00133073 3.50454 5.36551e-06C2.84729 -0.00117507 2.20764 0.192452 1.68309 0.55137C1.15854 0.910288 0.777879 1.41481 0.599121 1.98803L11.7904 12.0031Z" fill="#34A853"/>
</g>
<defs>
<clipPath id="clip0_542_4540">
<rect width="24" height="24" fill="white" transform="translate(0.5)"/>
</clipPath>
</defs>
</svg>
