<svg width="25" height="25" viewBox="0 0 25 25" fill="none" xmlns="http://www.w3.org/2000/svg">
<rect width="25" height="25" rx="12.5" fill="#87AB49"/>
<path fill-rule="evenodd" clip-rule="evenodd" d="M19.1432 6.76016C19.8765 6.96156 20.4565 7.55457 20.6535 8.30422C21.0147 9.66925 21.0256 12.5 21.0256 12.5C21.0256 12.5 21.0256 15.342 20.6645 16.6958C20.4675 17.4455 19.8874 18.0385 19.1542 18.2399C17.8299 18.6091 12.5 18.6091 12.5 18.6091C12.5 18.6091 7.17011 18.6091 5.84585 18.2399C5.11258 18.0385 4.53253 17.4455 4.33553 16.6958C3.97437 15.3308 3.97437 12.5 3.97437 12.5C3.97437 12.5 3.97437 9.66925 4.32458 8.31541C4.52158 7.56576 5.10163 6.97275 5.8349 6.77135C7.15917 6.40212 12.4891 6.39093 12.4891 6.39093C12.4891 6.39093 17.819 6.39093 19.1432 6.76016ZM15.2142 12.4999L10.7926 15.1181V9.88177L15.2142 12.4999Z" fill="white"/>
</svg>
