<svg xmlns="http://www.w3.org/2000/svg" width="25" height="24" viewBox="0 0 25 24" fill="none">
    <path d="M5.49951 11H19.4995C20.6041 11 21.4995 11.8954 21.4995 13V20C21.4995 21.1046 20.6041 22 19.4995 22H5.49951C4.39494 22 3.49951 21.1046 3.49951 20V13C3.49951 11.8954 4.39494 11 5.49951 11Z" fill="#87AB49" stroke="#87AB49" stroke-width="1.66667" stroke-linecap="round" stroke-linejoin="round"/>
    <path d="M7.50049 11V7C7.50049 5.67392 8.02727 4.40215 8.96495 3.46447C9.90264 2.52678 11.1744 2 12.5005 2C13.8266 2 15.0983 2.52678 16.036 3.46447C16.9737 4.40215 17.5005 5.67392 17.5005 7V11" stroke="#87AB49" stroke-width="1.66667" stroke-linecap="round" stroke-linejoin="round"/>
</svg>