<svg width="25" height="24" viewBox="0 0 25 24" fill="none" xmlns="http://www.w3.org/2000/svg">
<g clip-path="url(#clip0_542_3086)">
<path fill-rule="evenodd" clip-rule="evenodd" d="M7.234 0C2.30341 0 0.5 1.80309 0.5 6.73269V17.2673C0.5 22.1969 2.30341 24 7.234 24H17.7628C22.6932 24 24.5 22.1969 24.5 17.2673V6.73269C24.5 1.80309 22.6966 0 17.766 0H7.234Z" fill="url(#paint0_linear_542_3086)"/>
<path fill-rule="evenodd" clip-rule="evenodd" d="M10.9685 13.9195H11.9321L11.4487 12.7953L10.9685 13.9195ZM10.7313 14.486L10.4454 15.1401H9.79458L11.1786 12.0002H11.7411L13.1195 15.1401H12.4513L12.1691 14.486H10.7313ZM21.2041 15.1378H21.8332V12H21.2041V15.1378ZM18.7006 13.7899H19.86V13.2177H18.7006V12.5746H20.3838V12.0023H18.0717V15.1399H20.4443V14.5676H18.7006V13.7899ZM16.2012 14.1606L15.4881 12H14.9676L14.2545 14.1606L13.5605 12.0017H12.8819L13.9771 15.1419H14.5047L15.219 13.0792L15.9333 15.1419H16.4655L17.5578 12.0017H16.8968L16.2012 14.1606ZM8.83435 13.7986C8.83435 14.3093 8.58069 14.5823 8.12005 14.5823C7.65691 14.5823 7.40191 14.3014 7.40191 13.7768V12.0021H6.76439V13.7986C6.76439 14.6822 7.2555 15.1889 8.11137 15.1889C8.97574 15.1889 9.47129 14.6726 9.47129 13.7723V12.0002H8.83435V13.7986ZM5.24341 12.0002H5.88054V15.1421H5.24341V13.8661H3.80402V15.1421H3.1665V12.0002H3.80402V13.2675H5.24341V12.0002Z" fill="white"/>
<path fill-rule="evenodd" clip-rule="evenodd" d="M12.5 8C10.2942 8 8.5 6.20563 8.5 4H9.06501C9.06501 5.8939 10.6061 7.4348 12.5 7.4348C14.3939 7.4348 15.935 5.8939 15.935 4H16.5C16.5 6.20563 14.7056 8 12.5 8Z" fill="white"/>
</g>
<defs>
<linearGradient id="paint0_linear_542_3086" x1="12.5" y1="0" x2="12.5" y2="24" gradientUnits="userSpaceOnUse">
<stop stop-color="#FB6361"/>
<stop offset="1" stop-color="#ED3E45"/>
</linearGradient>
<clipPath id="clip0_542_3086">
<rect width="24" height="24" fill="white" transform="translate(0.5)"/>
</clipPath>
</defs>
</svg>
