<svg
  xmlns="http://www.w3.org/2000/svg"
  width="24"
  height="24"
  viewBox="0 0 24 24"
  fill="none"
>
  <path
    d="M23.1433 5.24327L22.3564 3.93398C21.811 3.02681 21.0992 2.28875 20.278 1.77917C19.4569 1.26959 18.5494 1.00271 17.6285 1H6.37995C5.47801 1.00288 4.58865 1.25888 3.7804 1.74827C2.97216 2.23766 2.26661 2.94738 1.71813 3.82274L0.897156 5.13569C0.230663 6.21064 -0.0826992 7.55156 0.0187095 8.89471C0.120118 10.2379 0.628957 11.486 1.44514 12.3936L9.43484 21.8154C10.1366 22.5805 11.0445 23.0023 11.9847 23C12.9449 22.9977 13.8707 22.5624 14.5847 21.7775L22.5204 12.4462C23.3412 11.5576 23.8604 10.3256 23.9757 8.9926C24.0909 7.6596 23.794 6.32212 23.1433 5.24327ZM20.7434 5.37408L21.5304 6.68704C21.6095 6.82138 21.679 6.9637 21.7384 7.11247H16.9476C16.8752 6.52704 16.7504 5.95311 16.5756 5.40098L15.9356 3.44499H17.6285C18.235 3.44639 18.8327 3.62164 19.3736 3.95667C19.9146 4.2917 20.3838 4.77717 20.7434 5.37408ZM11.9867 18.2225L9.21785 10.5575C9.1177 10.2333 9.04205 9.89852 8.99186 9.55745H14.9436C14.9017 9.82624 14.8429 10.0907 14.7676 10.3484L11.9867 18.2225ZM9.09686 7.11247C9.13867 6.89329 9.1911 6.67734 9.25385 6.46577L10.2378 3.44499H13.7817L14.7186 6.30929C14.8009 6.57083 14.8677 6.83924 14.9186 7.11247H9.09686ZM3.30807 5.3044C3.66962 4.7278 4.13457 4.26033 4.66714 3.93797C5.19971 3.6156 5.78569 3.44695 6.37995 3.44499H8.07989L7.39692 5.55868C7.23214 6.06019 7.10919 6.58076 7.02993 7.11247H2.24211C2.31069 6.93967 2.39345 6.77583 2.4891 6.62347L3.30807 5.3044ZM2.80809 10.6015C2.54722 10.3122 2.34228 9.95556 2.20811 9.55745H6.97993C7.04625 10.2161 7.17615 10.8628 7.36692 11.4841L10.1938 19.3081L2.80809 10.6015ZM13.7677 19.3545L16.6216 11.2689C16.7872 10.7156 16.9026 10.1416 16.9656 9.55745H21.7964C21.6548 9.97712 21.4386 10.353 21.1634 10.6577L13.7677 19.3545Z"
    fill="#87AB49"
  />
</svg>