<svg width="99" height="51" viewBox="0 0 99 51" fill="none" xmlns="http://www.w3.org/2000/svg">
<path d="M56.2208 12.7513C56.1895 9.70999 58.7004 8.25455 58.8117 8.18152C57.4015 6.12095 55.207 5.83751 54.4228 5.80621C52.557 5.61493 50.7781 6.90518 49.8287 6.90518C48.8827 6.90518 47.4186 5.83229 45.8693 5.86011C43.8313 5.89141 41.955 7.04603 40.9048 8.86837C38.7885 12.5409 40.3622 17.9801 42.4245 20.9623C43.4331 22.4194 44.6364 24.0557 46.2136 23.9983C47.7333 23.9375 48.3072 23.0141 50.1452 23.0141C51.9832 23.0141 52.4996 23.9983 54.1063 23.9688C55.7426 23.9375 56.7772 22.482 57.7771 21.0214C58.9352 19.3295 59.4116 17.6897 59.4412 17.608C59.4029 17.5871 56.2538 16.3821 56.2208 12.7513Z" fill="#1C2129"/>
<path d="M53.1984 3.83249C54.0348 2.81872 54.6017 1.40675 54.4469 0C53.2384 0.0486886 51.7795 0.801623 50.9118 1.81713C50.1345 2.71613 49.4581 4.1507 49.6389 5.52963C50.9848 5.63571 52.362 4.84452 53.1984 3.83249Z" fill="#1C2129"/>
<path d="M15.6058 45L20.0158 35.2H21.8078L26.2318 45H24.3278L20.5338 36.166H21.2618L17.4818 45H15.6058ZM17.6358 42.732L18.1258 41.304H23.4178L23.9078 42.732H17.6358ZM31.4541 45.098C30.8474 45.098 30.2921 44.958 29.7881 44.678C29.2934 44.398 28.8968 43.978 28.5981 43.418C28.3088 42.8487 28.1641 42.13 28.1641 41.262C28.1641 40.3847 28.3041 39.666 28.5841 39.106C28.8734 38.546 29.2654 38.1307 29.7601 37.86C30.2548 37.58 30.8194 37.44 31.4541 37.44C32.1914 37.44 32.8401 37.5987 33.4001 37.916C33.9694 38.2333 34.4174 38.6767 34.7441 39.246C35.0801 39.8153 35.2481 40.4873 35.2481 41.262C35.2481 42.0367 35.0801 42.7133 34.7441 43.292C34.4174 43.8613 33.9694 44.3047 33.4001 44.622C32.8401 44.9393 32.1914 45.098 31.4541 45.098ZM27.3101 47.716V37.524H28.9761V39.288L28.9201 41.276L29.0601 43.264V47.716H27.3101ZM31.2581 43.6C31.6781 43.6 32.0514 43.5067 32.3781 43.32C32.7141 43.1333 32.9801 42.8627 33.1761 42.508C33.3721 42.1533 33.4701 41.738 33.4701 41.262C33.4701 40.7767 33.3721 40.3613 33.1761 40.016C32.9801 39.6613 32.7141 39.3907 32.3781 39.204C32.0514 39.0173 31.6781 38.924 31.2581 38.924C30.8381 38.924 30.4601 39.0173 30.1241 39.204C29.7881 39.3907 29.5221 39.6613 29.3261 40.016C29.1301 40.3613 29.0321 40.7767 29.0321 41.262C29.0321 41.738 29.1301 42.1533 29.3261 42.508C29.5221 42.8627 29.7881 43.1333 30.1241 43.32C30.4601 43.5067 30.8381 43.6 31.2581 43.6ZM41.0518 45.098C40.4451 45.098 39.8898 44.958 39.3858 44.678C38.8911 44.398 38.4944 43.978 38.1958 43.418C37.9064 42.8487 37.7618 42.13 37.7618 41.262C37.7618 40.3847 37.9018 39.666 38.1818 39.106C38.4711 38.546 38.8631 38.1307 39.3578 37.86C39.8524 37.58 40.4171 37.44 41.0518 37.44C41.7891 37.44 42.4378 37.5987 42.9978 37.916C43.5671 38.2333 44.0151 38.6767 44.3418 39.246C44.6778 39.8153 44.8458 40.4873 44.8458 41.262C44.8458 42.0367 44.6778 42.7133 44.3418 43.292C44.0151 43.8613 43.5671 44.3047 42.9978 44.622C42.4378 44.9393 41.7891 45.098 41.0518 45.098ZM36.9078 47.716V37.524H38.5738V39.288L38.5178 41.276L38.6578 43.264V47.716H36.9078ZM40.8558 43.6C41.2758 43.6 41.6491 43.5067 41.9758 43.32C42.3118 43.1333 42.5778 42.8627 42.7738 42.508C42.9698 42.1533 43.0678 41.738 43.0678 41.262C43.0678 40.7767 42.9698 40.3613 42.7738 40.016C42.5778 39.6613 42.3118 39.3907 41.9758 39.204C41.6491 39.0173 41.2758 38.924 40.8558 38.924C40.4358 38.924 40.0578 39.0173 39.7218 39.204C39.3858 39.3907 39.1198 39.6613 38.9238 40.016C38.7278 40.3613 38.6298 40.7767 38.6298 41.262C38.6298 41.738 38.7278 42.1533 38.9238 42.508C39.1198 42.8627 39.3858 43.1333 39.7218 43.32C40.0578 43.5067 40.4358 43.6 40.8558 43.6ZM49.7114 45.14C48.9461 45.14 48.2134 45.0327 47.5134 44.818C46.8134 44.594 46.2581 44.3093 45.8474 43.964L46.4774 42.55C46.8694 42.858 47.3548 43.1147 47.9334 43.32C48.5121 43.5253 49.1048 43.628 49.7114 43.628C50.2248 43.628 50.6401 43.572 50.9574 43.46C51.2748 43.348 51.5081 43.1987 51.6574 43.012C51.8068 42.816 51.8814 42.5967 51.8814 42.354C51.8814 42.0553 51.7741 41.8173 51.5594 41.64C51.3448 41.4533 51.0648 41.3087 50.7194 41.206C50.3834 41.094 50.0054 40.9913 49.5854 40.898C49.1748 40.8047 48.7594 40.6973 48.3394 40.576C47.9288 40.4453 47.5508 40.282 47.2054 40.086C46.8694 39.8807 46.5941 39.61 46.3794 39.274C46.1648 38.938 46.0574 38.5087 46.0574 37.986C46.0574 37.454 46.1974 36.9687 46.4774 36.53C46.7668 36.082 47.2008 35.7273 47.7794 35.466C48.3674 35.1953 49.1094 35.06 50.0054 35.06C50.5934 35.06 51.1768 35.1347 51.7554 35.284C52.3341 35.4333 52.8381 35.648 53.2674 35.928L52.6934 37.342C52.2548 37.0807 51.8021 36.8893 51.3354 36.768C50.8688 36.6373 50.4208 36.572 49.9914 36.572C49.4874 36.572 49.0768 36.6327 48.7594 36.754C48.4514 36.8753 48.2228 37.034 48.0734 37.23C47.9334 37.426 47.8634 37.65 47.8634 37.902C47.8634 38.2007 47.9661 38.4433 48.1714 38.63C48.3861 38.8073 48.6614 38.9473 48.9974 39.05C49.3428 39.1527 49.7254 39.2553 50.1454 39.358C50.5654 39.4513 50.9808 39.5587 51.3914 39.68C51.8114 39.8013 52.1894 39.96 52.5254 40.156C52.8708 40.352 53.1461 40.618 53.3514 40.954C53.5661 41.29 53.6734 41.7147 53.6734 42.228C53.6734 42.7507 53.5288 43.236 53.2394 43.684C52.9594 44.1227 52.5254 44.4773 51.9374 44.748C51.3494 45.0093 50.6074 45.14 49.7114 45.14ZM58.1241 45.098C57.3028 45.098 56.6681 44.888 56.2201 44.468C55.7721 44.0387 55.5481 43.4087 55.5481 42.578V35.872H57.2981V42.536C57.2981 42.8907 57.3868 43.166 57.5641 43.362C57.7508 43.558 58.0074 43.656 58.3341 43.656C58.7261 43.656 59.0528 43.5533 59.3141 43.348L59.8041 44.594C59.5988 44.762 59.3468 44.888 59.0481 44.972C58.7494 45.056 58.4414 45.098 58.1241 45.098ZM54.3161 38.98V37.58H59.3001V38.98H54.3161ZM64.3576 45.098C63.5923 45.098 62.9109 44.9347 62.3136 44.608C61.7163 44.272 61.2449 43.8147 60.8996 43.236C60.5543 42.6573 60.3816 41.9993 60.3816 41.262C60.3816 40.5153 60.5543 39.8573 60.8996 39.288C61.2449 38.7093 61.7163 38.2567 62.3136 37.93C62.9109 37.6033 63.5923 37.44 64.3576 37.44C65.1323 37.44 65.8183 37.6033 66.4156 37.93C67.0223 38.2567 67.4936 38.7047 67.8296 39.274C68.1749 39.8433 68.3476 40.506 68.3476 41.262C68.3476 41.9993 68.1749 42.6573 67.8296 43.236C67.4936 43.8147 67.0223 44.272 66.4156 44.608C65.8183 44.9347 65.1323 45.098 64.3576 45.098ZM64.3576 43.6C64.7869 43.6 65.1696 43.5067 65.5056 43.32C65.8416 43.1333 66.1029 42.8627 66.2896 42.508C66.4856 42.1533 66.5836 41.738 66.5836 41.262C66.5836 40.7767 66.4856 40.3613 66.2896 40.016C66.1029 39.6613 65.8416 39.3907 65.5056 39.204C65.1696 39.0173 64.7916 38.924 64.3716 38.924C63.9423 38.924 63.5596 39.0173 63.2236 39.204C62.8969 39.3907 62.6356 39.6613 62.4396 40.016C62.2436 40.3613 62.1456 40.7767 62.1456 41.262C62.1456 41.738 62.2436 42.1533 62.4396 42.508C62.6356 42.8627 62.8969 43.1333 63.2236 43.32C63.5596 43.5067 63.9376 43.6 64.3576 43.6ZM70.021 45V37.524H71.687V39.582L71.491 38.98C71.715 38.476 72.065 38.0933 72.541 37.832C73.0264 37.5707 73.6284 37.44 74.347 37.44V39.106C74.2724 39.0873 74.2024 39.078 74.137 39.078C74.0717 39.0687 74.0064 39.064 73.941 39.064C73.2784 39.064 72.751 39.26 72.359 39.652C71.967 40.0347 71.771 40.6087 71.771 41.374V45H70.021ZM79.2772 45.098C78.4466 45.098 77.7186 44.9347 77.0932 44.608C76.4772 44.272 75.9966 43.8147 75.6512 43.236C75.3152 42.6573 75.1472 41.9993 75.1472 41.262C75.1472 40.5153 75.3106 39.8573 75.6372 39.288C75.9732 38.7093 76.4306 38.2567 77.0092 37.93C77.5972 37.6033 78.2646 37.44 79.0112 37.44C79.7392 37.44 80.3879 37.5987 80.9572 37.916C81.5266 38.2333 81.9746 38.6813 82.3012 39.26C82.6279 39.8387 82.7912 40.52 82.7912 41.304C82.7912 41.3787 82.7866 41.4627 82.7772 41.556C82.7772 41.6493 82.7726 41.738 82.7632 41.822H76.5332V40.66H81.8392L81.1532 41.024C81.1626 40.5947 81.0739 40.2167 80.8872 39.89C80.7006 39.5633 80.4439 39.3067 80.1172 39.12C79.7999 38.9333 79.4312 38.84 79.0112 38.84C78.5819 38.84 78.2039 38.9333 77.8772 39.12C77.5599 39.3067 77.3079 39.568 77.1212 39.904C76.9439 40.2307 76.8552 40.618 76.8552 41.066V41.346C76.8552 41.794 76.9579 42.1907 77.1632 42.536C77.3686 42.8813 77.6579 43.1473 78.0312 43.334C78.4046 43.5207 78.8339 43.614 79.3192 43.614C79.7392 43.614 80.1172 43.5487 80.4532 43.418C80.7892 43.2873 81.0879 43.082 81.3492 42.802L82.2872 43.88C81.9512 44.272 81.5266 44.5753 81.0132 44.79C80.5092 44.9953 79.9306 45.098 79.2772 45.098Z" fill="#97ABC3"/>
</svg>
