<svg width="99" height="51" viewBox="0 0 99 51" fill="none" xmlns="http://www.w3.org/2000/svg">
<g clip-path="url(#clip0_211_16187)">
<path d="M48.7076 11.4631L37.5991 22.0109C37.7239 22.4116 37.948 22.7811 38.2545 23.0912C38.5609 23.4013 38.9416 23.6438 39.3673 23.8002C39.793 23.9565 40.2525 24.0226 40.7108 23.9934C41.169 23.9641 41.6137 23.8403 42.0111 23.6313L54.5102 17.1796L48.7076 11.4631Z" fill="#EA4335"/>
<path d="M59.9409 9.66999L54.5357 6.86426L48.4517 11.703L54.5605 17.1645L59.9244 14.3887C60.3996 14.1632 60.7976 13.8242 61.0753 13.4083C61.353 12.9924 61.4999 12.5155 61.4999 12.0294C61.4999 11.5432 61.353 11.0664 61.0753 10.6505C60.7976 10.2346 60.3996 9.89549 59.9244 9.66999H59.9409Z" fill="#FBBC04"/>
<path d="M37.5994 1.99561C37.5322 2.22058 37.4988 2.45273 37.5 2.68579V21.3207C37.5007 21.5536 37.5341 21.7855 37.5994 22.0108L49.0886 11.7332L37.5994 1.99561Z" fill="#4285F4"/>
<path d="M48.7904 12.0031L54.535 6.8643L42.0524 0.382606C41.5829 0.133346 41.0488 0.00133073 40.5045 5.36551e-06C39.8473 -0.00117507 39.2076 0.192452 38.6831 0.55137C38.1585 0.910288 37.7779 1.41481 37.5991 1.98803L48.7904 12.0031Z" fill="#34A853"/>
</g>
<path d="M14.392 45.14C13.6267 45.14 12.922 45.0187 12.278 44.776C11.6434 44.524 11.088 44.174 10.612 43.726C10.136 43.2687 9.76738 42.732 9.50605 42.116C9.24471 41.5 9.11405 40.828 9.11405 40.1C9.11405 39.372 9.24471 38.7 9.50605 38.084C9.76738 37.468 10.136 36.936 10.612 36.488C11.0974 36.0307 11.662 35.6807 12.306 35.438C12.95 35.186 13.6547 35.06 14.42 35.06C15.2507 35.06 15.9974 35.1953 16.66 35.466C17.332 35.7367 17.8967 36.1333 18.354 36.656L17.206 37.776C16.8234 37.3933 16.408 37.1133 15.96 36.936C15.5214 36.7493 15.036 36.656 14.504 36.656C13.9907 36.656 13.5147 36.74 13.076 36.908C12.6374 37.076 12.2594 37.314 11.942 37.622C11.6247 37.93 11.3774 38.294 11.2 38.714C11.032 39.134 10.948 39.596 10.948 40.1C10.948 40.5947 11.032 41.052 11.2 41.472C11.3774 41.892 11.6247 42.2607 11.942 42.578C12.2594 42.886 12.6327 43.124 13.062 43.292C13.4914 43.46 13.9674 43.544 14.49 43.544C14.9754 43.544 15.442 43.4693 15.89 43.32C16.3474 43.1613 16.7814 42.9 17.192 42.536L18.228 43.894C17.7147 44.3047 17.1174 44.6173 16.436 44.832C15.764 45.0373 15.0827 45.14 14.392 45.14ZM16.506 43.656V39.988H18.228V43.894L16.506 43.656ZM23.8205 45.098C23.0552 45.098 22.3738 44.9347 21.7765 44.608C21.1792 44.272 20.7078 43.8147 20.3625 43.236C20.0172 42.6573 19.8445 41.9993 19.8445 41.262C19.8445 40.5153 20.0172 39.8573 20.3625 39.288C20.7078 38.7093 21.1792 38.2567 21.7765 37.93C22.3738 37.6033 23.0552 37.44 23.8205 37.44C24.5952 37.44 25.2812 37.6033 25.8785 37.93C26.4852 38.2567 26.9565 38.7047 27.2925 39.274C27.6378 39.8433 27.8105 40.506 27.8105 41.262C27.8105 41.9993 27.6378 42.6573 27.2925 43.236C26.9565 43.8147 26.4852 44.272 25.8785 44.608C25.2812 44.9347 24.5952 45.098 23.8205 45.098ZM23.8205 43.6C24.2498 43.6 24.6325 43.5067 24.9685 43.32C25.3045 43.1333 25.5658 42.8627 25.7525 42.508C25.9485 42.1533 26.0465 41.738 26.0465 41.262C26.0465 40.7767 25.9485 40.3613 25.7525 40.016C25.5658 39.6613 25.3045 39.3907 24.9685 39.204C24.6325 39.0173 24.2545 38.924 23.8345 38.924C23.4052 38.924 23.0225 39.0173 22.6865 39.204C22.3598 39.3907 22.0985 39.6613 21.9025 40.016C21.7065 40.3613 21.6085 40.7767 21.6085 41.262C21.6085 41.738 21.7065 42.1533 21.9025 42.508C22.0985 42.8627 22.3598 43.1333 22.6865 43.32C23.0225 43.5067 23.4005 43.6 23.8205 43.6ZM32.8439 45.098C32.0786 45.098 31.3973 44.9347 30.7999 44.608C30.2026 44.272 29.7313 43.8147 29.3859 43.236C29.0406 42.6573 28.8679 41.9993 28.8679 41.262C28.8679 40.5153 29.0406 39.8573 29.3859 39.288C29.7313 38.7093 30.2026 38.2567 30.7999 37.93C31.3973 37.6033 32.0786 37.44 32.8439 37.44C33.6186 37.44 34.3046 37.6033 34.9019 37.93C35.5086 38.2567 35.9799 38.7047 36.3159 39.274C36.6613 39.8433 36.8339 40.506 36.8339 41.262C36.8339 41.9993 36.6613 42.6573 36.3159 43.236C35.9799 43.8147 35.5086 44.272 34.9019 44.608C34.3046 44.9347 33.6186 45.098 32.8439 45.098ZM32.8439 43.6C33.2733 43.6 33.6559 43.5067 33.9919 43.32C34.3279 43.1333 34.5893 42.8627 34.7759 42.508C34.9719 42.1533 35.0699 41.738 35.0699 41.262C35.0699 40.7767 34.9719 40.3613 34.7759 40.016C34.5893 39.6613 34.3279 39.3907 33.9919 39.204C33.6559 39.0173 33.2779 38.924 32.8579 38.924C32.4286 38.924 32.0459 39.0173 31.7099 39.204C31.3833 39.3907 31.1219 39.6613 30.9259 40.016C30.7299 40.3613 30.6319 40.7767 30.6319 41.262C30.6319 41.738 30.7299 42.1533 30.9259 42.508C31.1219 42.8627 31.3833 43.1333 31.7099 43.32C32.0459 43.5067 32.4239 43.6 32.8439 43.6ZM41.8954 47.814C41.2047 47.814 40.528 47.7207 39.8654 47.534C39.212 47.3567 38.6754 47.0953 38.2554 46.75L39.0394 45.434C39.366 45.7047 39.7767 45.9193 40.2714 46.078C40.7754 46.246 41.284 46.33 41.7974 46.33C42.6187 46.33 43.2207 46.1387 43.6034 45.756C43.986 45.3827 44.1774 44.818 44.1774 44.062V42.732L44.3174 41.038L44.2614 39.344V37.524H45.9274V43.866C45.9274 45.2193 45.582 46.2133 44.8914 46.848C44.2007 47.492 43.202 47.814 41.8954 47.814ZM41.6714 44.664C40.962 44.664 40.318 44.5147 39.7394 44.216C39.17 43.908 38.7174 43.4833 38.3814 42.942C38.0547 42.4007 37.8914 41.766 37.8914 41.038C37.8914 40.3193 38.0547 39.6893 38.3814 39.148C38.7174 38.6067 39.17 38.1867 39.7394 37.888C40.318 37.5893 40.962 37.44 41.6714 37.44C42.306 37.44 42.8754 37.566 43.3794 37.818C43.8834 38.07 44.2847 38.462 44.5834 38.994C44.8914 39.526 45.0454 40.2073 45.0454 41.038C45.0454 41.8687 44.8914 42.5547 44.5834 43.096C44.2847 43.628 43.8834 44.0247 43.3794 44.286C42.8754 44.538 42.306 44.664 41.6714 44.664ZM41.9374 43.18C42.376 43.18 42.768 43.0913 43.1134 42.914C43.4587 42.7273 43.7247 42.4753 43.9114 42.158C44.1074 41.8313 44.2054 41.458 44.2054 41.038C44.2054 40.618 44.1074 40.2493 43.9114 39.932C43.7247 39.6053 43.4587 39.358 43.1134 39.19C42.768 39.0127 42.376 38.924 41.9374 38.924C41.4987 38.924 41.102 39.0127 40.7474 39.19C40.402 39.358 40.1314 39.6053 39.9354 39.932C39.7487 40.2493 39.6554 40.618 39.6554 41.038C39.6554 41.458 39.7487 41.8313 39.9354 42.158C40.1314 42.4753 40.402 42.7273 40.7474 42.914C41.102 43.0913 41.4987 43.18 41.9374 43.18ZM48.2281 45V34.612H49.9781V45H48.2281ZM55.789 45.098C54.9583 45.098 54.2303 44.9347 53.605 44.608C52.989 44.272 52.5083 43.8147 52.163 43.236C51.827 42.6573 51.659 41.9993 51.659 41.262C51.659 40.5153 51.8223 39.8573 52.149 39.288C52.485 38.7093 52.9423 38.2567 53.521 37.93C54.109 37.6033 54.7763 37.44 55.523 37.44C56.251 37.44 56.8996 37.5987 57.469 37.916C58.0383 38.2333 58.4863 38.6813 58.813 39.26C59.1396 39.8387 59.303 40.52 59.303 41.304C59.303 41.3787 59.2983 41.4627 59.289 41.556C59.289 41.6493 59.2843 41.738 59.275 41.822H53.045V40.66H58.351L57.665 41.024C57.6743 40.5947 57.5856 40.2167 57.399 39.89C57.2123 39.5633 56.9556 39.3067 56.629 39.12C56.3116 38.9333 55.943 38.84 55.523 38.84C55.0936 38.84 54.7156 38.9333 54.389 39.12C54.0716 39.3067 53.8196 39.568 53.633 39.904C53.4556 40.2307 53.367 40.618 53.367 41.066V41.346C53.367 41.794 53.4696 42.1907 53.675 42.536C53.8803 42.8813 54.1696 43.1473 54.543 43.334C54.9163 43.5207 55.3456 43.614 55.831 43.614C56.251 43.614 56.629 43.5487 56.965 43.418C57.301 43.2873 57.5996 43.082 57.861 42.802L58.799 43.88C58.463 44.272 58.0383 44.5753 57.525 44.79C57.021 44.9953 56.4423 45.098 55.789 45.098ZM61.1519 45V35.2H65.1839C66.0519 35.2 66.7939 35.34 67.4099 35.62C68.0353 35.9 68.5159 36.3013 68.8519 36.824C69.1879 37.3467 69.3559 37.9673 69.3559 38.686C69.3559 39.4047 69.1879 40.0253 68.8519 40.548C68.5159 41.0707 68.0353 41.472 67.4099 41.752C66.7939 42.032 66.0519 42.172 65.1839 42.172H62.1599L62.9719 41.318V45H61.1519ZM62.9719 41.514L62.1599 40.632H65.0999C65.9026 40.632 66.5046 40.464 66.9059 40.128C67.3166 39.7827 67.5219 39.302 67.5219 38.686C67.5219 38.0607 67.3166 37.58 66.9059 37.244C66.5046 36.908 65.9026 36.74 65.0999 36.74H62.1599L62.9719 35.844V41.514ZM71.1421 45V34.612H72.8921V45H71.1421ZM79.795 45V43.488L79.697 43.166V40.52C79.697 40.0067 79.543 39.61 79.235 39.33C78.927 39.0407 78.4603 38.896 77.835 38.896C77.415 38.896 76.9997 38.9613 76.589 39.092C76.1877 39.2227 75.847 39.4047 75.567 39.638L74.881 38.364C75.2823 38.056 75.7583 37.8273 76.309 37.678C76.869 37.5193 77.4477 37.44 78.045 37.44C79.1277 37.44 79.963 37.7013 80.551 38.224C81.1483 38.7373 81.447 39.5353 81.447 40.618V45H79.795ZM77.443 45.098C76.883 45.098 76.393 45.0047 75.973 44.818C75.553 44.622 75.2263 44.356 74.993 44.02C74.769 43.6747 74.657 43.2873 74.657 42.858C74.657 42.438 74.755 42.06 74.951 41.724C75.1563 41.388 75.4877 41.122 75.945 40.926C76.4023 40.73 77.009 40.632 77.765 40.632H79.935V41.794H77.891C77.2937 41.794 76.8923 41.892 76.687 42.088C76.4817 42.2747 76.379 42.508 76.379 42.788C76.379 43.1053 76.505 43.3573 76.757 43.544C77.009 43.7307 77.359 43.824 77.807 43.824C78.2363 43.824 78.619 43.726 78.955 43.53C79.3003 43.334 79.5477 43.0447 79.697 42.662L79.991 43.712C79.823 44.1507 79.5197 44.4913 79.081 44.734C78.6517 44.9767 78.1057 45.098 77.443 45.098ZM84.1722 47.814C83.8082 47.814 83.4442 47.7533 83.0802 47.632C82.7162 47.5107 82.4129 47.3427 82.1702 47.128L82.8702 45.84C83.0475 45.9987 83.2482 46.1247 83.4722 46.218C83.6962 46.3113 83.9249 46.358 84.1582 46.358C84.4755 46.358 84.7322 46.2787 84.9282 46.12C85.1242 45.9613 85.3062 45.6953 85.4742 45.322L85.9082 44.342L86.0482 44.132L88.8762 37.524H90.5562L87.0562 45.602C86.8229 46.162 86.5615 46.6053 86.2722 46.932C85.9922 47.2587 85.6749 47.4873 85.3202 47.618C84.9749 47.7487 84.5922 47.814 84.1722 47.814ZM85.7122 45.266L82.3382 37.524H84.1582L86.9022 43.978L85.7122 45.266Z" fill="#97ABC3"/>
<defs>
<clipPath id="clip0_211_16187">
<rect width="24" height="24" fill="white" transform="translate(37.5)"/>
</clipPath>
</defs>
</svg>
