<svg width="80" height="80" viewBox="0 0 80 80" fill="none" xmlns="http://www.w3.org/2000/svg">
<circle cx="41.1429" cy="39.9998" r="31.16" fill="url(#paint0_linear_202_9482)"/>
<path fill-rule="evenodd" clip-rule="evenodd" d="M5.97882 51.0734C6.51534 50.4105 7.54319 50.511 7.96789 51.2506C8.24029 51.7249 8.16747 52.3203 7.8048 52.7298C5.69046 55.1173 4.77851 56.9749 5.3864 58.0335C7.33943 61.4346 24.2409 55.2998 43.1368 44.3311C43.789 43.9525 44.435 43.5731 45.0744 43.1933C45.2962 43.0616 45.4238 42.8177 45.4238 42.5598C45.4238 38.1929 48.9638 34.6529 53.3306 34.6529C55.6719 34.6529 58.2078 34.7224 60.0966 33.339C69.5153 26.4405 75.1087 20.5658 73.8147 18.3123C73.2344 17.3018 71.3346 17.1331 68.4549 17.6828C67.9359 17.7819 67.4053 17.5517 67.1422 17.0936C66.7289 16.3739 67.1509 15.461 67.9721 15.3409C73.6289 14.5132 77.6415 15.2045 79.0481 17.6539C81.6824 22.2414 74.4336 31.7053 61.8149 41.3286C61.436 41.6175 61.2375 42.0832 61.2375 42.5598C61.2375 46.9266 57.6975 50.4666 53.3306 50.4666C53.1114 50.4666 52.8943 50.4577 52.6796 50.4402C50.7336 50.2816 48.6617 50.2002 46.9731 51.1804C25.7127 63.5216 5.60325 68.5203 2.05736 62.3454C0.60211 59.8112 2.16287 55.7888 5.97882 51.0734Z" fill="#D7DEED"/>
<circle cx="53.3309" cy="42.5599" r="3.95342" fill="#87AB49"/>
<g opacity="0.32">
<path d="M25.175 29.3429C23.2573 34.0781 23.8623 39.0715 21.5102 38.1189C19.1581 37.1663 18.8059 32.5555 20.7236 27.8203C22.6413 23.0851 26.1026 20.0187 28.4547 20.9713C30.8068 21.9239 27.0927 24.6077 25.175 29.3429Z" fill="#EAEBEF"/>
<path d="M23.6985 42.823C23.8698 44.3824 23.1478 45.7411 22.0859 45.8578C21.0239 45.9744 20.0241 44.8049 19.8528 43.2456C19.6815 41.6863 20.4035 40.3276 21.4654 40.2109C22.5274 40.0942 23.5271 41.2637 23.6985 42.823Z" fill="#EAEBEF"/>
</g>
<path opacity="0.1" d="M31.9433 63.7381C30.8606 63.1125 31.3795 62.064 34.0095 61.1923C39.5552 59.975 38.6194 62.4359 46.5997 61.4891C54.58 60.5423 58.7871 57.2524 60.9061 55.0883C62.6014 53.3569 64.1683 51.0141 64.0932 51.8407C63.7325 53.599 60.8199 58.2339 52.0552 62.7065C41.0992 68.2972 33.6037 64.6974 31.9433 63.7381Z" fill="black"/>
<path d="M67.1769 22.7476C68.2052 22.0662 68.4922 20.6748 67.7437 19.6942C62.9864 13.4616 56.1727 9.07668 48.4765 7.34811C40.0516 5.45585 31.2213 6.89336 23.8315 11.3601C16.4417 15.8269 11.0645 22.9772 8.82397 31.3163C6.77721 38.934 7.49262 47.0051 10.7998 54.1142C11.3201 55.2327 12.6854 55.6254 13.7668 55.0317C14.8481 54.4379 15.2347 53.0829 14.7259 51.9591C11.967 45.8654 11.3907 38.9797 13.1383 32.4755C15.0797 25.2496 19.7391 19.0538 26.1424 15.1833C32.5457 11.3128 40.1973 10.0672 47.4976 11.7068C54.0688 13.1827 59.8976 16.8935 64.0106 22.1687C64.7691 23.1416 66.1486 23.4291 67.1769 22.7476Z" fill="#D7DEED"/>
<path d="M22.0581 64.7218C21.3043 65.6983 21.481 67.1079 22.5056 67.7949C27.2963 71.0073 32.8479 72.9342 38.6248 73.3702C45.1459 73.8623 51.6682 72.433 57.3859 69.259C63.1036 66.0849 67.7659 61.3051 70.7969 55.5103C73.482 50.3768 74.7825 44.646 74.5896 38.8811C74.5484 37.6482 73.4455 36.7528 72.2181 36.8762C70.9906 36.9996 70.1047 38.0953 70.1333 39.3285C70.2466 44.2231 69.1188 49.08 66.8384 53.4398C64.212 58.461 60.172 62.6028 55.2176 65.3531C50.2632 68.1035 44.6115 69.342 38.961 68.9156C34.0548 68.5453 29.3362 66.934 25.242 64.2493C24.2104 63.5728 22.812 63.7453 22.0581 64.7218Z" fill="#D7DEED"/>
<defs>
<linearGradient id="paint0_linear_202_9482" x1="8.09808" y1="-13.2916" x2="55.2363" y2="67.0181" gradientUnits="userSpaceOnUse">
<stop offset="0.394669" stop-color="#FF3A3A"/>
<stop offset="0.72037" stop-color="#D64D12"/>
<stop offset="0.749987" stop-color="#70AF09"/>
</linearGradient>
</defs>
</svg>
