<svg width="20" height="20" viewBox="0 0 20 20" fill="none" xmlns="http://www.w3.org/2000/svg">
<circle cx="10.0061" cy="9.72828" r="7.57828" fill="url(#paint0_linear_11_297)"/>
<path d="M16.5319 3.73219C17.9071 3.53093 18.8831 3.69826 19.2252 4.29371C19.8653 5.4096 18.1018 7.7111 15.033 10.0515C14.9407 10.1219 14.8932 10.2352 14.8932 10.3513V10.3513C14.8929 11.4131 14.0322 12.2742 12.9703 12.2742C12.917 12.2742 12.8642 12.272 12.8119 12.2676C12.3384 12.2285 11.8354 12.2095 11.4244 12.448V12.448C6.25427 15.4492 1.36357 16.664 0.50061 15.1628C0.147069 14.5467 0.52653 13.5686 1.45373 12.4226C1.58493 12.2611 1.83552 12.2859 1.93909 12.4666C2.00542 12.5824 1.98759 12.728 1.89905 12.8279C1.38574 13.4072 1.16292 13.8567 1.31018 14.114C1.78618 14.9404 5.8969 13.4492 10.4918 10.782C10.6525 10.6887 10.8104 10.5933 10.9675 10.4992C11.0191 10.4682 11.0475 10.4115 11.0475 10.3513V10.3513C11.0475 9.28929 11.9083 8.4275 12.9703 8.4275V8.4275C13.5379 8.4275 14.1519 8.44549 14.6098 8.11028C16.9032 6.43149 18.2669 5.00261 17.9528 4.45387C17.8117 4.2082 17.3499 4.16855 16.65 4.3025C16.5235 4.32671 16.3939 4.27059 16.3297 4.15894C16.2292 3.98356 16.3319 3.76166 16.5319 3.73219Z" fill="white"/>
<circle cx="12.9703" cy="10.3508" r="0.961494" fill="#87AB49"/>
<g opacity="0.32">
<path d="M6.12265 7.1364C5.65626 8.28802 5.8034 9.50245 5.23135 9.27078C4.65931 9.0391 4.57366 7.91772 5.04005 6.7661C5.50644 5.61448 6.34826 4.86871 6.92031 5.10038C7.49235 5.33206 6.58904 5.98478 6.12265 7.1364Z" fill="#EAEBEF"/>
<path d="M5.76356 10.4148C5.80523 10.7941 5.62964 11.1245 5.37136 11.1529C5.11309 11.1813 4.86994 10.8969 4.82827 10.5176C4.7866 10.1384 4.96219 9.80794 5.22047 9.77956C5.47874 9.75118 5.72189 10.0356 5.76356 10.4148Z" fill="#EAEBEF"/>
</g>
<path opacity="0.1" d="M7.76873 15.5015C7.50539 15.3494 7.6316 15.0944 8.27124 14.8824C9.61997 14.5863 9.3924 15.1848 11.3332 14.9545C13.2741 14.7243 14.2973 13.9242 14.8126 13.3978C15.2249 12.9768 15.606 12.407 15.5878 12.608C15.5 13.0356 14.7917 14.1629 12.66 15.2506C9.99548 16.6103 8.17253 15.7348 7.76873 15.5015Z" fill="black"/>
<path d="M16.3377 5.53241C16.5878 5.36668 16.6576 5.02828 16.4756 4.7898C15.3186 3.274 13.6614 2.20756 11.7897 1.78716C9.74069 1.32695 7.59311 1.67656 5.79588 2.76291C3.99864 3.84925 2.69088 5.58824 2.14596 7.61636C1.64818 9.46904 1.82217 11.432 2.62649 13.1609C2.75303 13.433 3.08509 13.5285 3.34808 13.3841V13.3841C3.61106 13.2397 3.7051 12.9101 3.58135 12.6368C2.91036 11.1548 2.7702 9.48014 3.19522 7.89828C3.6674 6.1409 4.80059 4.63405 6.3579 3.69272C7.91522 2.75139 9.77612 2.44845 11.5516 2.84722C13.1498 3.20617 14.5673 4.10866 15.5677 5.39162C15.7521 5.62822 16.0876 5.69814 16.3377 5.53241V5.53241Z" fill="white"/>
<path d="M5.36459 15.7408C5.18125 15.9782 5.22422 16.3211 5.47341 16.4882C6.63854 17.2694 7.98872 17.7381 9.3937 17.8441C10.9797 17.9638 12.5659 17.6162 13.9565 16.8442C15.3471 16.0723 16.481 14.9098 17.2181 13.5005C17.8712 12.252 18.1875 10.8582 18.1405 9.45616C18.1305 9.15631 17.8623 8.93854 17.5638 8.96855V8.96855C17.2653 8.99855 17.0498 9.26503 17.0567 9.56497C17.0843 10.7554 16.81 11.9366 16.2554 12.9969C15.6167 14.2181 14.6341 15.2254 13.4292 15.8943C12.2242 16.5632 10.8497 16.8644 9.47546 16.7607C8.28225 16.6707 7.13465 16.2788 6.13893 15.6258C5.88804 15.4613 5.54793 15.5033 5.36459 15.7408V15.7408Z" fill="white"/>
<defs>
<linearGradient id="paint0_linear_11_297" x1="1.96946" y1="-3.23249" x2="13.4337" y2="16.2993" gradientUnits="userSpaceOnUse">
<stop offset="0.394669" stop-color="#FF3A3A"/>
<stop offset="0.72037" stop-color="#D64D12"/>
<stop offset="0.749987" stop-color="#70AF09"/>
</linearGradient>
</defs>
</svg>
