<svg width="120" height="120" viewBox="0 0 120 120" fill="none" xmlns="http://www.w3.org/2000/svg">
<g opacity="0.3">
<path d="M101.958 23.0123C110.443 21.7706 116.462 22.8071 118.572 26.481C123.891 35.7435 102.35 58.2593 70.4599 76.7711C38.5694 95.2828 8.40485 102.78 3.08584 93.5181C0.903307 89.7168 3.24472 83.6836 8.96866 76.6109C9.77332 75.6169 11.3149 75.7677 11.9521 76.8765C12.3606 77.5879 12.2516 78.481 11.7079 79.0953C8.53649 82.6763 7.1682 85.4625 8.07998 87.0504C11.0098 92.1517 36.3613 82.9496 64.705 66.4967C93.0485 50.0438 113.652 32.5701 110.723 27.4683C109.852 25.9526 107.002 25.7001 102.682 26.525C101.903 26.6736 101.107 26.3282 100.713 25.6412C100.093 24.5618 100.726 23.1925 101.958 23.0123Z" fill="#C2CCDF"/>
<path d="M100.765 34.1217C102.307 33.0995 102.738 31.0124 101.615 29.5415C94.4792 20.1927 84.2587 13.6153 72.7144 11.0224C60.0769 8.18402 46.8315 10.3403 35.7468 17.0405C24.6622 23.7406 16.5964 34.466 13.2355 46.9747C10.1654 58.4013 11.2385 70.508 16.1992 81.1716C16.9797 82.8494 19.0277 83.4383 20.6497 82.5477V82.5477C22.2717 81.6571 22.8517 79.6246 22.0885 77.9389C17.9501 68.7983 17.0856 58.4698 19.707 48.7135C22.6192 37.8746 29.6083 28.5809 39.2132 22.7752C48.8181 16.9694 60.2955 15.101 71.2459 17.5605C81.1027 19.7743 89.8459 25.3405 96.0155 33.2534C97.1533 34.7126 99.2225 35.1439 100.765 34.1217V34.1217Z" fill="#C2CCDF"/>
<path d="M33.0868 97.0829C31.956 98.5476 32.221 100.662 33.7579 101.693C40.944 106.511 49.2714 109.402 57.9368 110.055C67.7184 110.794 77.5019 108.65 86.0784 103.889C94.6549 99.1275 101.648 91.9578 106.195 83.2656C110.223 75.5653 112.173 66.9692 111.884 58.3219C111.822 56.4725 110.168 55.1294 108.327 55.3145V55.3145C106.486 55.4995 105.157 57.143 105.199 58.993C105.37 66.3348 103.678 73.6202 100.257 80.1599C96.3176 87.6917 90.2576 93.9043 82.826 98.0299C75.3944 102.155 66.9169 104.013 58.441 103.374C51.0818 102.818 44.0038 100.401 37.8626 96.3741C36.3152 95.3594 34.2175 95.6181 33.0868 97.0829V97.0829Z" fill="#C2CCDF"/>
</g>
</svg>
