<svg width="132" height="15" viewBox="0 0 132 15" fill="none" xmlns="http://www.w3.org/2000/svg">
<path d="M0.286953 14.0709V0.0708609H6.34695C7.60029 0.0708609 8.68029 0.277528 9.58695 0.690861C10.4936 1.09086 11.1936 1.67086 11.687 2.43086C12.1803 3.19086 12.427 4.09753 12.427 5.15086C12.427 6.19086 12.1803 7.09086 11.687 7.85086C11.1936 8.61086 10.4936 9.19753 9.58695 9.61086C8.68029 10.0109 7.60029 10.2109 6.34695 10.2109H2.08695L3.52695 8.75086V14.0709H0.286953ZM3.52695 9.11086L2.08695 7.57086H6.16695C7.16695 7.57086 7.91362 7.35753 8.40695 6.93086C8.90029 6.50419 9.14695 5.91086 9.14695 5.15086C9.14695 4.37753 8.90029 3.77753 8.40695 3.35086C7.91362 2.92419 7.16695 2.71086 6.16695 2.71086H2.08695L3.52695 1.17086V9.11086ZM14.7401 14.0709V0.0708609H17.9801V11.4309H25.0001V14.0709H14.7401ZM25.0485 14.0709L31.2885 0.0708609H34.4885L40.7485 14.0709H37.3485L32.2285 1.71086H33.5085L28.3685 14.0709H25.0485ZM28.1685 11.0709L29.0285 8.61086H36.2285L37.1085 11.0709H28.1685ZM42.201 14.0709V0.0708609H44.881L53.141 10.1509H51.841V0.0708609H55.041V14.0709H52.381L44.101 3.99086H45.401V14.0709H42.201ZM61.3334 5.71086H68.0734V8.23086H61.3334V5.71086ZM61.5734 11.4709H69.1934V14.0709H58.3534V0.0708609H68.9334V2.67086H61.5734V11.4709ZM74.6713 14.0709V2.71086H70.1913V0.0708609H82.3913V2.71086H77.9113V14.0709H74.6713Z" fill="#7E92B3"/>
<path d="M93.9987 14.0709L87.9587 0.0708609H91.4587L96.7387 12.4709H94.6787L100.039 0.0708609H103.259L97.1987 14.0709H93.9987ZM104.428 14.0709V0.0708609H110.488C111.741 0.0708609 112.821 0.277528 113.728 0.690861C114.634 1.09086 115.334 1.67086 115.828 2.43086C116.321 3.19086 116.568 4.09753 116.568 5.15086C116.568 6.19086 116.321 7.09086 115.828 7.85086C115.334 8.61086 114.634 9.19753 113.728 9.61086C112.821 10.0109 111.741 10.2109 110.488 10.2109H106.228L107.668 8.75086V14.0709H104.428ZM107.668 9.11086L106.228 7.57086H110.308C111.308 7.57086 112.054 7.35753 112.548 6.93086C113.041 6.50419 113.288 5.91086 113.288 5.15086C113.288 4.37753 113.041 3.77753 112.548 3.35086C112.054 2.92419 111.308 2.71086 110.308 2.71086H106.228L107.668 1.17086V9.11086ZM118.881 14.0709V0.0708609H121.561L129.821 10.1509H128.521V0.0708609H131.721V14.0709H129.061L120.781 3.99086H122.081V14.0709H118.881Z" fill="#87AB49"/>
</svg>
