<svg width="40" height="16" viewBox="0 0 40 16" fill="none" xmlns="http://www.w3.org/2000/svg">
    <rect y="0.970703" width="40" height="15" rx="2" fill="#87AB49" />
    <path d="M7.158 4.2707C8.15533 4.2707 8.94 4.50904 9.512 4.9857C10.084 5.46237 10.37 6.1187 10.37 6.9547C10.37 7.7907 10.084 8.44704 9.512 8.9237C8.94 9.40037 8.15533 9.6387 7.158 9.6387H5.255V11.9707H4.155V4.2707H7.158ZM7.125 8.6817C7.82167 8.6817 8.35333 8.53504 8.72 8.2417C9.08667 7.94104 9.27 7.51204 9.27 6.9547C9.27 6.39737 9.08667 5.97204 8.72 5.6787C8.35333 5.37804 7.82167 5.2277 7.125 5.2277H5.255V8.6817H7.125ZM17.1341 11.9707L15.4731 9.6057C15.2677 9.62037 15.1064 9.6277 14.9891 9.6277H13.0861V11.9707H11.9861V4.2707H14.9891C15.9864 4.2707 16.7711 4.50904 17.3431 4.9857C17.9151 5.46237 18.2011 6.1187 18.2011 6.9547C18.2011 7.5487 18.0544 8.0547 17.7611 8.4727C17.4677 8.8907 17.0497 9.19504 16.5071 9.3857L18.3331 11.9707H17.1341ZM14.9561 8.6927C15.6527 8.6927 16.1844 8.54237 16.5511 8.2417C16.9177 7.94104 17.1011 7.51204 17.1011 6.9547C17.1011 6.39737 16.9177 5.97204 16.5511 5.6787C16.1844 5.37804 15.6527 5.2277 14.9561 5.2277H13.0861V8.6927H14.9561ZM25.5662 11.0137V11.9707H19.9782V4.2707H25.4122V5.2277H21.0782V7.5927H24.9392V8.5277H21.0782V11.0137H25.5662ZM34.4864 11.9707L34.4754 6.3607L31.6924 11.0357H31.1864L28.4034 6.3937V11.9707H27.3474V4.2707H28.2494L31.4614 9.6827L34.6294 4.2707H35.5314L35.5424 11.9707H34.4864Z" fill="white" />
</svg>