<svg width="65" height="40" viewBox="0 0 65 40" fill="none" xmlns="http://www.w3.org/2000/svg">
    <circle opacity="0.4" cx="32.5" cy="20" r="32" fill="white"/>
    <circle opacity="0.4" cx="32.5" cy="20" r="24" fill="white"/>
    <circle opacity="0.4" cx="32.5" cy="20" r="16" fill="white"/>
    <path d="M21.2169 19.7344L20.5 20.0383C20.5 20.22 20.5698 20.4003 20.7062 20.5362L32.0053 31.7957C32.1371 31.9272 32.3636 31.9992 32.4966 31.9998C32.6317 32.0004 32.8628 31.9293 32.9969 31.7956L44.2941 20.529C44.4301 20.3933 44.4999 20.2134 44.5001 20.0321L43.8768 19.7344C43.5292 19.7344 40.3009 19.7344 36.3784 19.7344L32.1723 21.0922L28.615 19.7344C24.9253 19.7344 21.8521 19.7344 21.2169 19.7344Z" fill="#FFB739"/>
    <path d="M44.4998 20.0321C44.4998 20.2133 44.4301 20.3931 44.2938 20.5289L32.9967 31.7955C32.8638 31.9284 32.6348 31.9996 32.5 31.9996V20.9863L36.3784 19.7344H43.8767L44.4998 20.0321Z" fill="#FF9441"/>
    <path d="M28.6147 19.7344L32.4998 31.9996L36.3781 19.7344H28.6147Z" fill="#FF9441"/>
    <path d="M36.3783 19.7344L32.5 31.9996V19.7344H36.3783Z" fill="#FF7149"/>
    <path d="M44.3822 19.6418L40.6216 14.0072C40.5695 13.9293 40.5025 13.8632 40.4253 13.8121L40.0844 13.9757L33.1506 14.019L32.5 13.6948L31.9742 14.0263L25.056 14.0694L24.5733 13.8128C24.4966 13.8637 24.4298 13.9297 24.3779 14.0076L20.6175 19.6492C20.5383 19.768 20.5 19.9035 20.5 20.0383C21.8622 20.0379 42.7406 20.0324 44.5 20.0319C44.5001 19.8968 44.4617 19.7608 44.3822 19.6418Z" fill="#FFD17E"/>
    <path d="M44.4998 20.0321C43.6281 20.0321 38.0605 20.034 32.5 20.0354V13.6948L33.1508 14.0188L40.0845 13.9757L40.4253 13.8118C40.5025 13.8633 40.5695 13.9293 40.6215 14.0071L44.3823 19.6416C44.4619 19.761 44.5003 19.8968 44.4998 20.0321Z" fill="#FFB739"/>
    <path d="M24.962 13.6948C24.8216 13.6948 24.6869 13.7371 24.5732 13.8127L28.7384 20.0361H28.7388L32.4996 13.6948H24.962Z" fill="#FFB739"/>
    <path d="M36.2626 20.0341L40.4254 13.8119C40.312 13.7368 40.1777 13.6948 40.0377 13.6948H32.5L36.2596 20.0342H36.2626V20.0341Z" fill="#FF9441"/>
    <path d="M28.3009 24.9368C27.1255 24.9368 26.1692 23.9806 26.1692 22.8052C26.1692 22.4169 25.8544 22.1021 25.4661 22.1021C25.0778 22.1021 24.763 22.4169 24.763 22.8052C24.763 23.9747 23.8125 24.9368 22.6313 24.9368C22.243 24.9368 21.9282 25.2516 21.9282 25.6399C21.9282 26.0283 22.243 26.3431 22.6313 26.3431C23.8067 26.3431 24.763 27.2993 24.763 28.4747C24.763 28.863 25.0778 29.1778 25.4661 29.1778C25.8544 29.1778 26.1692 28.863 26.1692 28.4747C26.1692 27.3053 27.1196 26.3431 28.3009 26.3431C28.6892 26.3431 29.004 26.0283 29.004 25.6399C29.004 25.2516 28.6892 24.9368 28.3009 24.9368Z" fill="#FFD17E"/>
    <path d="M39.0777 10.8348C37.9023 10.8348 36.9461 9.87852 36.9461 8.70312C36.9461 8.31481 36.6313 8 36.243 8C35.8547 8 35.5398 8.31481 35.5398 8.70312C35.5398 9.87852 34.5836 10.8348 33.4082 10.8348C33.0199 10.8348 32.7051 11.1496 32.7051 11.5379C32.7051 11.9262 33.0199 12.241 33.4082 12.241C34.5836 12.241 35.5398 13.1973 35.5398 14.3727C35.5398 14.761 35.8547 15.0758 36.243 15.0758C36.6313 15.0758 36.9461 14.761 36.9461 14.3727C36.9461 13.1973 37.9023 12.241 39.0777 12.241C39.466 12.241 39.7809 11.9262 39.7809 11.5379C39.7809 11.1496 39.466 10.8348 39.0777 10.8348Z" fill="#FFB739"/>
</svg>
